mtllib _KTREBSH.mtl
g Group01
v 2 2 1
vt 1 1
vn 0.235702 0.235702 0.942809
v 2 -2.00001 2
vt 1 1.78814e-07
vn -1.58051e-08 -1.58051e-08 1
v -2 2 2
vt 2.98023e-08 1
vn -1.58051e-08 -1.58051e-08 1
v -2 -2 1
vt 1.78814e-07 0
vn -0.235702 -0.235702 0.942809
v 2.07107 -3.01609e-06 3
vt 1 1
vn 0.398748 0.398748 0.825833
v 8.42937e-08 -3.65572e-06 4
vt 0.5 0.5
vn -1.18198e-07 0.434811 0.900522
v -4.30454e-07 2.07106 3
vt 2.98023e-08 1
vn -1.18198e-07 0.434811 0.900522
v -2.07107 -4.88852e-06 3
vt 1.78814e-07 0
vn -0.398748 0.398748 0.825833
v 7.67629e-07 -2.07107 3
vt 1 1.78814e-07
vn 0.398748 -0.398748 0.825833
v 3.07107 -2.88965e-06 2
vt 1 1
vn 0.295767 0.295767 0.908319
v 8.42937e-08 -3.69943e-06 3
vt 0.5 0.5
vn -9.18319e-08 0.309619 0.950861
v -8.9407e-07 3.07106 2
vt 2.98023e-08 1
vn -9.18319e-08 0.309619 0.950861
v -3.07107 -4.34062e-06 2
vt 1.78814e-07 0
vn -0.295767 0.295767 0.90832
v 8.9407e-07 -3.07107 2
vt 1 1.78814e-07
vn 0.295767 -0.295767 0.90832
usemtl _1fbush1.bmp
f 1/1/1 3/3/3 2/2/2
f 4/4/4 2/2/2 3/3/3
f 5/5/5 7/7/7 6/6/6
f 8/8/8 6/6/6 7/7/7
f 6/6/6 9/9/9 5/5/5
f 8/8/8 9/9/9 6/6/6
f 10/10/10 12/12/12 11/11/11
f 13/13/13 11/11/11 12/12/12
f 11/11/11 14/14/14 10/10/10
f 13/13/13 14/14/14 11/11/11
